<svg width="156" height="38" viewBox="0 0 156 38" fill="none" xmlns="http://www.w3.org/2000/svg">
<path d="M31.6874 17.3385V22.6348C31.6874 24.9814 31.6858 26.6415 31.578 27.9385C31.4718 29.2154 31.2706 29.9935 30.9525 30.6036C30.3336 31.7922 29.3622 32.7617 28.1703 33.3791C27.5587 33.6964 26.7787 33.8972 25.4987 34.0031C24.1986 34.1106 22.5345 34.1123 20.1824 34.1123H15.2839C12.9317 34.1123 11.2677 34.1106 9.96778 34.0031C8.68745 33.8972 7.90774 33.6964 7.296 33.3791C6.10432 32.7617 5.13267 31.7922 4.51363 30.6036C4.19586 29.9935 3.99465 29.2154 3.88829 27.9385C3.78037 26.6415 3.77901 24.9814 3.77901 22.6348V17.7483C3.77901 15.4017 3.78037 13.7418 3.88829 12.4449C3.99465 11.1677 4.19586 10.3899 4.51363 9.77958C5.13267 8.59078 6.10432 7.62147 7.296 7.00392C7.90774 6.68691 8.68745 6.48619 9.96778 6.38012C11.2677 6.27242 12.9316 6.27111 15.2839 6.27111H20.5931C20.6405 5.12455 20.87 4.02484 21.2532 3H15.211C12.9481 2.99996 11.148 2.99996 9.6964 3.12022C8.20965 3.24337 6.94223 3.50114 5.78446 4.1011C3.99387 5.02899 2.53393 6.48545 1.6038 8.27173C1.00239 9.42667 0.744 10.691 0.620545 12.1742C0.500001 13.6223 0.5 15.418 0.5 17.6755V22.7075C0.5 24.965 0.500001 26.7609 0.620545 28.2091C0.744 29.6922 1.00239 30.9565 1.6038 32.1116C2.53393 33.8976 3.99387 35.3541 5.78446 36.2822C6.94223 36.8821 8.20965 37.1397 9.6964 37.2632C11.148 37.3834 12.948 37.3834 15.2109 37.3834H20.2553C22.5181 37.3834 24.3183 37.3834 25.77 37.2632C27.2567 37.1397 28.524 36.8821 29.6819 36.2822C31.4722 35.3541 32.9322 33.8976 33.8626 32.1116C34.4639 30.9565 34.7221 29.6922 34.8459 28.2091C34.9664 26.7609 34.9664 24.965 34.9664 22.708V16.6799C33.9389 17.0623 32.8367 17.2912 31.6874 17.3385Z" fill="white"/>
<path d="M58.6911 17.2999C58.6911 18.3042 58.4485 19.2456 57.9632 20.1245C57.4959 21.0032 56.75 21.7114 55.7253 22.2495C54.7186 22.7872 53.4423 23.0562 51.8962 23.0562H48.7414V30.2654H44.9664V11.4897H51.8962C53.3525 11.4897 54.5928 11.7408 55.6175 12.2429C56.6418 12.745 57.4058 13.4354 57.9091 14.3141C58.4305 15.1928 58.6911 16.1881 58.6911 17.2999ZM51.7343 20.0167C52.777 20.0167 53.5501 19.7836 54.0534 19.3174C54.5567 18.8331 54.8084 18.1607 54.8084 17.2999C54.8084 15.4708 53.7837 14.5562 51.7343 14.5562H48.7414V20.0167H51.7343Z" fill="white"/>
<path d="M64.4661 17.677C64.9514 16.8879 65.5806 16.2692 66.3536 15.8209C67.1443 15.3726 68.0431 15.1484 69.0498 15.1484V19.1026H68.0521C66.866 19.1026 65.9671 19.3806 65.356 19.9364C64.7625 20.4925 64.4661 21.4608 64.4661 22.8416V30.2658H60.6912V15.3636H64.4661V17.677Z" fill="white"/>
<path d="M78.6264 30.2657C77.1885 30.2657 75.8941 29.9517 74.7436 29.324C73.5931 28.6784 72.6856 27.7731 72.0204 26.6074C71.3732 25.4416 71.0498 24.0968 71.0498 22.5725C71.0498 21.0481 71.3822 19.7033 72.0474 18.5377C72.7303 17.3721 73.6562 16.4754 74.8248 15.8478C75.9929 15.2022 77.2963 14.8794 78.7346 14.8794C80.1724 14.8794 81.4758 15.2022 82.6444 15.8478C83.8125 16.4754 84.7294 17.3721 85.3947 18.5377C86.0775 19.7033 86.4194 21.0481 86.4194 22.5725C86.4194 24.0968 86.0685 25.4416 85.3676 26.6074C84.6844 27.7731 83.7498 28.6784 82.5632 29.324C81.3947 29.9517 80.0827 30.2657 78.6264 30.2657ZM78.6264 26.984C79.3096 26.984 79.9478 26.8225 80.5409 26.4999C81.152 26.1593 81.6377 25.6571 81.9972 24.9935C82.3567 24.3299 82.5362 23.5231 82.5362 22.5725C82.5362 21.1557 82.1587 20.0709 81.4037 19.3177C80.6667 18.5466 79.7589 18.1611 78.6805 18.1611C77.6021 18.1611 76.6942 18.5466 75.9573 19.3177C75.2379 20.0709 74.8785 21.1557 74.8785 22.5725C74.8785 23.9893 75.2289 25.0831 75.9302 25.8542C76.6491 26.6074 77.548 26.984 78.6264 26.984Z" fill="white"/>
<path d="M88.4193 22.5188C88.4193 21.0124 88.7157 19.6763 89.3092 18.5106C89.9203 17.345 90.747 16.4484 91.7897 15.8207C92.8325 15.1931 93.9916 14.8793 95.2679 14.8793C96.2389 14.8793 97.1644 15.0945 98.0453 15.5249C98.9261 15.9373 99.6274 16.4932 100.148 17.1926V10.1182H103.977V30.0235H100.148V27.8176C99.6811 28.5528 99.0249 29.1448 98.1801 29.593C97.3354 30.0415 96.3558 30.2656 95.2409 30.2656C93.9826 30.2656 92.8325 29.9426 91.7897 29.2973C90.747 28.6517 89.9203 27.746 89.3092 26.5803C88.7157 25.397 88.4193 24.0427 88.4193 22.5188ZM100.175 22.5723C100.175 21.6577 99.9959 20.8779 99.6364 20.2323C99.2765 19.5686 98.7912 19.0666 98.1801 18.7258C97.569 18.3672 96.9128 18.1879 96.2119 18.1879C95.5106 18.1879 94.8634 18.3582 94.2703 18.6989C93.6772 19.0397 93.1919 19.5418 92.8144 20.2053C92.455 20.8509 92.275 21.6221 92.275 22.5188C92.275 23.4151 92.455 24.2042 92.8144 24.8858C93.1919 25.5491 93.6772 26.0602 94.2703 26.4188C94.8814 26.7778 95.5286 26.9569 96.2119 26.9569C96.9128 26.9569 97.569 26.7868 98.1801 26.4457C98.7912 26.0872 99.2765 25.585 99.6364 24.9394C99.9959 24.2762 100.175 23.487 100.175 22.5723Z" fill="white"/>
<path d="M120.214 15.1753V30.0775H116.412V28.1945C115.927 28.8402 115.289 29.3513 114.498 29.7279C113.725 30.0865 112.88 30.2655 111.963 30.2655C110.795 30.2655 109.761 30.0235 108.863 29.5394C107.964 29.0372 107.254 28.3111 106.732 27.3604C106.229 26.3921 105.977 25.2444 105.977 23.9175V15.1753H109.752V23.3794C109.752 24.5632 110.049 25.4775 110.642 26.1231C111.235 26.7507 112.044 27.0648 113.069 27.0648C114.111 27.0648 114.93 26.7507 115.523 26.1231C116.116 25.4775 116.412 24.5632 116.412 23.3794V15.1753H120.214Z" fill="white"/>
<path d="M122.214 22.5725C122.214 21.0301 122.529 19.6854 123.158 18.5377C123.788 17.3721 124.659 16.4754 125.774 15.8478C126.888 15.2022 128.165 14.8794 129.602 14.8794C131.454 14.8794 132.982 15.3456 134.187 16.2782C135.409 17.1927 136.227 18.4839 136.64 20.1514H132.569C132.353 19.506 131.984 19.0039 131.463 18.6453C130.96 18.2687 130.331 18.0804 129.576 18.0804C128.497 18.0804 127.643 18.4749 127.014 19.264C126.385 20.0349 126.07 21.1381 126.07 22.5725C126.07 23.9893 126.385 25.092 127.014 25.8812C127.643 26.6524 128.497 27.0379 129.576 27.0379C131.103 27.0379 132.101 26.3563 132.569 24.9935H136.64C136.227 26.6074 135.409 27.8897 134.187 28.8399C132.964 29.7906 131.436 30.2657 129.602 30.2657C128.165 30.2657 126.888 29.9517 125.774 29.324C124.659 28.6784 123.788 27.7821 123.158 26.6344C122.529 25.4686 122.214 24.1148 122.214 22.5725Z" fill="white"/>
<path d="M144.221 18.4567V25.6655C144.221 26.1676 144.338 26.5352 144.572 26.7687C144.824 26.9838 145.237 27.0913 145.813 27.0913H147.565V30.2655H145.192C142.011 30.2655 140.419 28.7232 140.419 25.639V18.4567H138.64V15.3634H140.419V11.6782H144.221V15.3634H147.565V18.4567H144.221Z" fill="white"/>
<path d="M22.5 8.16811C22.5 4.1033 25.8032 0.808105 29.8778 0.808105C33.9524 0.808105 37.2556 4.1033 37.2556 8.16811C37.2556 12.2329 33.9524 15.5281 29.8778 15.5281C25.8032 15.5281 22.5 12.2329 22.5 8.16811Z" fill="#7214FF"/>
<path d="M151.846 30.6034C151.163 30.6034 150.596 30.3969 150.147 29.9847C149.716 29.5542 149.5 29.0251 149.5 28.3974C149.5 27.7698 149.716 27.2497 150.147 26.8375C150.596 26.407 151.163 26.1919 151.846 26.1919C152.511 26.1919 153.059 26.407 153.491 26.8375C153.922 27.2497 154.138 27.7698 154.138 28.3974C154.138 29.0251 153.922 29.5542 153.491 29.9847C153.059 30.3969 152.511 30.6034 151.846 30.6034Z" fill="#7214FF"/>
</svg>
