<svg width="39" height="30" viewBox="0 0 39 30" fill="none" xmlns="http://www.w3.org/2000/svg">
<g clip-path="url(#clip0_222_25)">
<path d="M5.83585 0.303783C6.36931 0.0444596 6.97687 -0.00740501 7.5622 4.22692e-06C11.0668 4.22692e-06 14.5788 4.22692e-06 18.0833 4.22692e-06C18.2908 -0.0148142 18.4908 0.0666874 18.6168 0.2371C19.5059 1.28921 20.3876 2.34873 21.2767 3.40084C25.5963 3.40084 29.9085 3.40084 34.2281 3.40084C34.6726 3.40084 35.1172 3.38603 35.5543 3.46753C36.1989 3.60089 36.7916 3.94172 37.2288 4.43814C37.7252 4.97901 37.9771 5.70512 38.0068 6.43863V23.065C37.9697 23.6429 37.7993 24.2134 37.4659 24.6876C36.9843 25.4137 36.1767 25.8879 35.3246 26.0064C35.3246 20.983 35.3246 15.9521 35.3246 10.9286C35.332 10.3285 35.3172 9.72092 35.1246 9.15041C34.6948 7.70561 33.4649 6.54236 32.0053 6.18672C31.3755 6.0163 30.7235 6.05335 30.0789 6.05335C26.0112 6.05335 21.9361 6.05335 17.8685 6.05335C17.209 5.26797 16.5496 4.49 15.8976 3.70462C15.6531 3.40825 15.4086 3.08966 15.0678 2.89702C14.7492 2.70438 14.3713 2.65251 14.0008 2.65251C10.7037 2.65251 7.40661 2.65251 4.1095 2.65251C4.25768 1.65226 4.90969 0.733519 5.83585 0.303783Z" fill="#DF2DB1"/>
<path d="M1.81262 4.28254C2.28681 4.04544 2.82028 3.96394 3.34633 3.96394C6.92499 3.96394 10.5111 3.96394 14.0897 3.96394C14.2824 3.94912 14.475 4.03804 14.5936 4.19363C15.4901 5.25315 16.3718 6.31267 17.2683 7.36478C21.8176 7.36478 26.3594 7.35737 30.9087 7.37219C32.0719 7.35737 33.2056 8.04643 33.702 9.09854C33.9983 9.68387 34.0354 10.3507 34.0206 10.9953C34.0206 16.2336 34.0206 21.4646 34.0206 26.7029C34.0132 27.1326 33.9761 27.5772 33.8205 27.9847C33.5167 28.8368 32.8055 29.5406 31.9386 29.8296C31.3903 30.0222 30.805 30.0074 30.2345 30.0074C21.4175 30.0074 12.6005 30.0074 3.78348 30.0074C3.17592 30.0148 2.54613 30.0148 1.97562 29.7703C0.871646 29.3332 0.115904 28.207 0.0788574 27.0289V6.98691C0.108494 5.8533 0.782735 4.76414 1.81262 4.28254Z" fill="#F6F6F7"/>
</g>
<defs>
<clipPath id="clip0_222_25">
<rect width="37.9353" height="30" fill="white" transform="translate(0.0788574)"/>
</clipPath>
</defs>
</svg>
