<svg width="25" height="24" viewBox="0 0 25 24" fill="none" xmlns="http://www.w3.org/2000/svg">
<path d="M15.06 12C15.06 12.5063 14.9099 13.0013 14.6286 13.4223C14.3473 13.8432 13.9474 14.1714 13.4797 14.3651C13.0119 14.5589 12.4972 14.6096 12.0006 14.5108C11.504 14.412 11.0478 14.1682 10.6898 13.8102C10.3318 13.4522 10.088 12.996 9.98919 12.4994C9.89041 12.0028 9.94111 11.4881 10.1349 11.0203C10.3286 10.5526 10.6568 10.1527 11.0777 9.87144C11.4987 9.59014 11.9937 9.44 12.5 9.44C13.1783 9.44211 13.8282 9.7125 14.3079 10.1921C14.7875 10.6718 15.0579 11.3217 15.06 12ZM20.5 8.48V15.52C20.5 16.7082 20.028 17.8477 19.1878 18.6878C18.3477 19.528 17.2082 20 16.02 20H8.98C7.79183 20 6.65232 19.528 5.81216 18.6878C4.972 17.8477 4.5 16.7082 4.5 15.52V8.48C4.5 7.29183 4.972 6.15232 5.81216 5.31216C6.65232 4.472 7.79183 4 8.98 4H16.02C17.2082 4 18.3477 4.472 19.1878 5.31216C20.028 6.15232 20.5 7.29183 20.5 8.48ZM16.34 12C16.34 11.2405 16.1148 10.4981 15.6928 9.86661C15.2709 9.23513 14.6712 8.74294 13.9695 8.4523C13.2678 8.16166 12.4957 8.08562 11.7509 8.23378C11.006 8.38195 10.3217 8.74768 9.78471 9.28471C9.24768 9.82174 8.88195 10.506 8.73378 11.2509C8.58562 11.9957 8.66166 12.7678 8.9523 13.4695C9.24294 14.1712 9.73513 14.7709 10.3666 15.1928C10.9981 15.6148 11.7405 15.84 12.5 15.84C13.5184 15.84 14.4952 15.4354 15.2153 14.7153C15.9354 13.9952 16.34 13.0184 16.34 12ZM17.62 7.84C17.62 7.65013 17.5637 7.46452 17.4582 7.30665C17.3527 7.14878 17.2028 7.02574 17.0274 6.95308C16.852 6.88042 16.6589 6.8614 16.4727 6.89845C16.2865 6.93549 16.1154 7.02692 15.9812 7.16118C15.8469 7.29544 15.7555 7.46649 15.7184 7.65271C15.6814 7.83893 15.7004 8.03196 15.7731 8.20738C15.8457 8.38279 15.9688 8.53272 16.1267 8.63821C16.2845 8.7437 16.4701 8.8 16.66 8.8C16.9146 8.8 17.1588 8.69886 17.3388 8.51882C17.5189 8.33879 17.62 8.09461 17.62 7.84Z" fill="#8F9BB7"/>
</svg>
