<svg width="25" height="24" viewBox="0 0 25 24" fill="none" xmlns="http://www.w3.org/2000/svg">
<path d="M8.06768 5.77857C8.06745 6.25004 7.87928 6.7021 7.54458 7.03532C7.20987 7.36853 6.75605 7.55559 6.28295 7.55536C5.80984 7.55512 5.35621 7.36761 5.02184 7.03406C4.68748 6.70051 4.49976 6.24826 4.5 5.77679C4.50024 5.30532 4.6884 4.85325 5.02311 4.52004C5.35781 4.18683 5.81163 3.99976 6.28473 4C6.75784 4.00024 7.21147 4.18775 7.54584 4.5213C7.8802 4.85484 8.06792 5.3071 8.06768 5.77857ZM8.1212 8.87173H4.55352V20H8.1212V8.87173ZM13.7581 8.87173H10.2083V20H13.7225V14.1603C13.7225 10.9072 17.9769 10.605 17.9769 14.1603V20H21.5V12.9515C21.5 7.46736 15.203 7.6718 13.7225 10.365L13.7581 8.87173Z" fill="#8F9BB7"/>
</svg>
