<svg width="0" height="0" class="hidden">
  <symbol fill="none" xmlns="http://www.w3.org/2000/svg" viewBox="0 0 25 24" id="arrow">
    <path d="M5.5 12H19.5" stroke="#8F9BB7" stroke-width="2" stroke-linecap="round" stroke-linejoin="round"></path>
    <path d="M12.5 5L19.5 12L12.5 19" stroke="#8F9BB7" stroke-width="2" stroke-linecap="round" stroke-linejoin="round"></path>
  </symbol>
  <symbol fill="none" xmlns="http://www.w3.org/2000/svg" viewBox="0 0 33 30" id="calendar">
    <g clip-path="url(#clip0_222_37)">
      <path d="M10.4301 5.41219C11.0691 5.42722 11.6479 4.85594 11.6328 4.217C11.6328 3.18718 11.6404 2.14985 11.6328 1.12003C11.6028 0.435993 10.9037 -0.120259 10.2272 0.0150455C9.67093 0.0977316 9.21992 0.623915 9.23495 1.1952C9.23495 2.20247 9.23495 3.20973 9.23495 4.20948C9.2124 4.85594 9.7912 5.42722 10.4301 5.41219Z" fill="#F6F6F7"></path>
      <path d="M22.4572 5.41219C23.0961 5.42722 23.6674 4.85594 23.6599 4.217C23.6599 3.18718 23.6674 2.14985 23.6599 1.12003C23.6373 0.435993 22.9307 -0.120259 22.2542 0.0150455C21.698 0.105248 21.247 0.631432 21.262 1.1952C21.262 2.20247 21.262 3.20973 21.262 4.20948C21.2394 4.85594 21.8182 5.42722 22.4572 5.41219Z" fill="#F6F6F7"></path>
      <path d="M32.0788 10.8243H0.808472C0.808472 14.7858 0.808472 19.0178 0.808472 23.0093V26.5873C0.808472 28.4665 2.33441 29.9925 4.21363 29.9925H7.61879C13.9405 29.9925 20.2698 29.9925 26.5915 29.9925C26.6516 29.9925 26.7118 29.9925 26.7794 29.9925H28.6812C30.5604 29.9925 32.0863 28.4665 32.0863 26.5873V23.0093H32.0788C32.0788 19.0178 32.0788 14.7933 32.0788 10.8243ZM22.0212 19.0178C21.9686 19.4462 21.6454 19.7619 21.2996 19.9799L19.5331 21.2503C19.7736 21.9945 20.0142 22.7311 20.2547 23.4753C20.4051 23.8662 20.3975 24.3322 20.142 24.678C19.7962 25.2042 19.0144 25.3545 18.5033 25.0012C17.8117 24.5126 17.1352 24.009 16.4437 23.5129C15.8122 23.9714 15.1883 24.4224 14.5569 24.881C14.3389 25.0463 14.0909 25.1816 13.8127 25.1967C13.3542 25.2343 12.8957 24.9862 12.6702 24.5878C12.4973 24.2871 12.4747 23.9188 12.5875 23.5956C12.8355 22.8213 13.0911 22.0471 13.3392 21.2728C12.6702 20.7767 11.9936 20.2956 11.3171 19.7995C10.8887 19.4913 10.7158 18.8825 10.9187 18.4014C11.0841 17.9579 11.5351 17.6497 12.0087 17.6422C12.8431 17.6347 13.6849 17.6422 14.5268 17.6422C14.7899 16.8454 15.038 16.0486 15.3011 15.2593C15.4665 14.7632 15.9926 14.4174 16.5113 14.4625C16.9774 14.4851 17.4133 14.8158 17.5637 15.2593C17.8268 16.0486 18.0823 16.8454 18.3379 17.6347C18.3379 17.6422 18.3454 17.6422 18.3454 17.6422C19.1948 17.6497 20.0518 17.6347 20.9012 17.6497C21.6003 17.6572 22.149 18.3488 22.0212 19.0178Z" fill="#F6F6F7"></path>
      <path d="M26.7418 2.41291C26.1179 2.39036 25.4865 2.42795 24.8626 2.41291C24.8551 3.10447 24.8852 3.80354 24.8476 4.4951C24.7348 5.67525 23.6449 6.64493 22.4647 6.62238C21.2846 6.65245 20.1871 5.67525 20.0743 4.50261C20.0367 3.81106 20.0668 3.11199 20.0593 2.42043H12.8431C12.8355 3.11199 12.8656 3.81106 12.828 4.50261C12.7153 5.68277 11.6253 6.65245 10.4452 6.6299C9.26501 6.65997 8.16754 5.69029 8.05479 4.51013C8.0172 3.81858 8.04727 3.1195 8.03975 2.42043C7.41585 2.42043 6.78443 2.42043 6.16052 2.42043H4.2813C2.34945 2.41291 0.800964 3.9614 0.800964 5.87069V8.1859C0.800964 8.66698 0.823515 9.14807 0.808481 9.62163H32.0788C32.0638 9.14807 32.0864 8.66698 32.0864 8.1859V5.87069C32.0864 3.9614 30.5379 2.4054 28.6211 2.4054H26.7418V2.41291Z" fill="#32CAFD"></path>
    </g>
    <defs>
      <clipPath id="clip0_222_37">
        <rect width="31.2779" height="30" fill="white" transform="translate(0.800964)"></rect>
      </clipPath>
    </defs>
  </symbol>
  <symbol fill="none" xmlns="http://www.w3.org/2000/svg" viewBox="0 0 49 45" id="deal">
    <g clip-path="url(#clip0_195_418)">
      <path d="M24.1049 0.0561697C24.9289 -0.196639 25.8465 0.477518 25.8746 1.33894C25.8839 2.90261 25.8746 4.46628 25.8746 6.03932C25.8933 6.68538 25.397 7.30336 24.7603 7.42508C23.9551 7.62171 23.0937 6.95692 23.0749 6.13295C23.0656 4.56928 23.0749 3.00561 23.0656 1.44194C23.0468 0.805233 23.4963 0.215346 24.1049 0.0561697Z" fill="#DF2DB1"></path>
      <path d="M13.8146 3.33332C14.2922 3.20223 14.8352 3.35204 15.1817 3.70785C16.3989 4.92508 17.6161 6.14231 18.8334 7.35017C19.2173 7.69661 19.4139 8.23968 19.2922 8.7453C19.1798 9.28837 18.7116 9.71909 18.1686 9.81272C17.7285 9.88762 17.2603 9.74718 16.942 9.43819C15.706 8.20223 14.4794 6.96628 13.2435 5.73968C12.9158 5.4307 12.7285 4.97189 12.7847 4.52246C12.8408 3.96066 13.2622 3.4644 13.8146 3.33332Z" fill="#DF2DB1"></path>
      <path d="M34.4045 3.33333C35.0131 3.16479 35.7247 3.45506 36.0056 4.03558C36.2959 4.56929 36.1835 5.27153 35.7434 5.69288C34.4981 6.9382 33.2528 8.19288 31.9981 9.4382C31.4925 9.94382 30.6124 9.97191 30.088 9.48502C29.4981 8.98876 29.4607 7.99625 30.0225 7.45318C31.2678 6.20786 32.5131 4.96255 33.7584 3.70786C33.9363 3.52996 34.161 3.39888 34.4045 3.33333Z" fill="#DF2DB1"></path>
      <path d="M14.0768 14.5693C15.4625 13.4176 17.2416 12.7715 19.0393 12.7622C21.8202 12.7622 24.6011 12.7622 27.3727 12.7622C28.5431 12.7247 29.7228 13.015 30.706 13.6611C31.2678 14.0169 31.736 14.5037 32.2041 14.9719C33.7303 16.4981 35.2659 18.0337 36.7921 19.5599C37.1573 19.9157 37.5225 20.2996 37.7285 20.7772C38.3371 22.0506 37.9625 23.7079 36.8483 24.5787C35.6498 25.5805 33.7303 25.4682 32.6255 24.3914C31.2865 23.0712 29.9757 21.7322 28.6461 20.412C28.3652 20.1311 27.9719 19.9813 27.5787 19.9813C24.0487 19.9719 20.5187 19.9813 16.9888 19.9813C15.4625 21.264 13.9363 22.5468 12.4007 23.8296C11.8296 24.3165 11.2303 24.7659 10.7715 25.3652C9.46067 27.0131 9.14232 29.382 9.95693 31.3202C10.603 32.912 11.9794 34.176 13.6086 34.7097C13.7491 35.5618 14.0487 36.3858 14.5075 37.1161C13.7772 37.0693 12.9064 37.3034 12.3071 36.7509C11.1648 35.6367 10.0506 34.4944 8.9176 33.3708C6.76405 33.3614 4.61985 33.3708 2.46629 33.3708C2.0824 33.3708 1.67041 33.4082 1.30524 33.2303C0.865169 33.015 0.58427 32.5843 0.5 32.1161V16.8165C0.58427 16.1236 1.20225 15.5524 1.90449 15.5618C5.61236 15.5618 9.32022 15.5618 13.0281 15.5618C13.3652 15.2247 13.7022 14.8783 14.0768 14.5693Z" fill="#F6F6F7"></path>
      <path d="M39.6011 18.4738C42.0824 18.4738 44.5543 18.4738 47.0356 18.4738C47.7191 18.455 48.309 19.0075 48.4401 19.6723V35.0187C48.3465 35.7022 47.7378 36.2734 47.045 36.264C45.1723 36.2734 43.2996 36.264 41.427 36.264C41.2397 36.2734 41.0056 36.2172 40.8652 36.3764C37.7472 38.9981 34.6199 41.6105 31.5019 44.2322C30.7341 44.897 29.6479 45.1592 28.6648 44.9063C27.4569 44.6161 26.4925 43.5674 26.3146 42.3408C26.1461 41.3951 26.4832 40.412 27.1011 39.691C26.4832 40.1779 25.8933 40.7022 25.2847 41.1985C24.5824 41.8071 23.6086 42.0786 22.7004 41.9195C21.4738 41.7322 20.4345 40.749 20.1536 39.5505C19.882 38.4831 20.2285 37.3033 21.015 36.5449C20.3315 36.9944 19.4888 37.2284 18.6648 37.088C17.3914 36.9007 16.3053 35.8614 16.0618 34.588C15.8464 33.5393 16.2116 32.4063 16.9794 31.676C16.1742 32.2378 15.1255 32.4532 14.1798 32.1535C12.9157 31.7884 11.97 30.5711 11.9326 29.2603C11.8858 28.2771 12.3352 27.294 13.103 26.676C14.6573 25.3932 16.1742 24.073 17.7378 22.809C20.8464 22.7996 23.9551 22.7996 27.0637 22.809C28.0375 23.8015 29.03 24.7846 30.0131 25.7678C30.4251 26.1704 30.809 26.6011 31.2772 26.9382C32.3539 27.7434 33.7116 28.1554 35.0599 28.0992C36.3333 28.0618 37.5787 27.5936 38.5712 26.7977C39.7697 25.8427 40.5843 24.4007 40.7715 22.8745C40.9775 21.3202 40.5375 19.7191 39.6011 18.4738Z" fill="#F6F6F7"></path>
    </g>
    <defs>
      <clipPath id="clip0_195_418">
        <rect width="47.9401" height="45" fill="white" transform="translate(0.5)"></rect>
      </clipPath>
    </defs>
  </symbol>
  <symbol fill="none" xmlns="http://www.w3.org/2000/svg" viewBox="0 0 23 30" id="document">
    <g clip-path="url(#clip0_222_31)">
      <path d="M2.55127 0H14.0767C14.0767 2.05078 14.0767 4.10742 14.0767 6.1582C14.0708 6.93164 14.4341 7.69336 15.0376 8.18555C15.5181 8.58984 16.145 8.80078 16.772 8.79492C18.8052 8.79492 20.8325 8.79492 22.8657 8.79492C22.8657 14.9883 22.8657 21.1816 22.8657 27.3691C22.8716 28.2715 22.3735 29.1562 21.6001 29.6191C21.2485 29.8418 20.8442 29.9531 20.4341 30.0059H2.42236C1.96533 29.9355 1.51416 29.8008 1.13916 29.5254C0.441892 29.0391 0.00829839 28.207 0.0141578 27.3633C0.0141578 19.1602 0.0141578 10.957 0.0141578 2.75391C0.0141578 2.4375 0.0434546 2.12109 0.143064 1.82227C0.46533 0.791016 1.47314 0.0351562 2.55127 0ZM6.00244 12.3809C5.55713 12.457 5.22314 12.9199 5.29931 13.3652C5.35205 13.7871 5.74463 14.127 6.17236 14.1211C9.66455 14.1211 13.1626 14.1211 16.6606 14.1211C16.936 14.1328 17.2173 14.0215 17.3931 13.8047C17.604 13.5586 17.6626 13.1953 17.5278 12.9023C17.3989 12.5859 17.0649 12.3633 16.7251 12.3633C13.3091 12.3633 9.8872 12.3633 6.47119 12.3633C6.30713 12.3633 6.15478 12.3516 6.00244 12.3809ZM6.00244 15.8965C5.45752 15.9844 5.11767 16.6406 5.37549 17.1328C5.52197 17.4551 5.87353 17.6543 6.2251 17.6367C9.72314 17.6367 13.2153 17.6367 16.7134 17.6367C17.0767 17.6367 17.4282 17.3965 17.5395 17.0508C17.6978 16.6465 17.4868 16.1426 17.0884 15.9668C16.8657 15.8496 16.6079 15.8848 16.3677 15.8789C13.0864 15.8789 9.80517 15.8789 6.52392 15.8789C6.34814 15.8789 6.17236 15.8672 6.00244 15.8965ZM6.00244 19.4121C5.55713 19.4883 5.22314 19.9512 5.29931 20.3965C5.35205 20.8184 5.74463 21.1582 6.17236 21.1523C9.5708 21.1523 12.9692 21.1523 16.3677 21.1523C16.6372 21.1523 16.936 21.1816 17.1704 21.0234C17.5923 20.7832 17.727 20.1738 17.4399 19.7812C17.27 19.5234 16.9595 19.3828 16.6548 19.3945C13.2739 19.3945 9.89892 19.3945 6.51806 19.3945C6.34814 19.3945 6.17236 19.3828 6.00244 19.4121ZM6.00244 22.9277C5.55713 23.0039 5.22314 23.4668 5.29931 23.918C5.35205 24.3398 5.74463 24.6797 6.1665 24.6738C8.49267 24.6738 10.813 24.6738 13.1392 24.6738C13.4263 24.6855 13.7251 24.5566 13.895 24.3223C14.1001 24.0586 14.1294 23.6719 13.9712 23.3789C13.8247 23.0977 13.5142 22.9102 13.1978 22.916C10.9536 22.916 8.70361 22.916 6.45947 22.916C6.30713 22.9102 6.15478 22.9043 6.00244 22.9277Z" fill="#F6F6F7"></path>
      <path d="M15.8345 0.521484C18.0083 2.68945 20.1763 4.86328 22.3501 7.03125C20.4692 7.03125 18.5942 7.03125 16.7134 7.03125C16.3501 7.03125 16.0044 6.79102 15.8872 6.44531C15.8228 6.27539 15.8345 6.09375 15.8345 5.91797C15.8345 4.11914 15.8345 2.32031 15.8345 0.521484Z" fill="#41E88D"></path>
    </g>
    <defs>
      <clipPath id="clip0_222_31">
        <rect width="22.8516" height="30" fill="white" transform="translate(0.0141602)"></rect>
      </clipPath>
    </defs>
  </symbol>
  <symbol fill="none" xmlns="http://www.w3.org/2000/svg" viewBox="0 0 48 45" id="email">
    <g clip-path="url(#clip0_195_328)">
      <path d="M11.9452 0.116053C13.1477 -0.0316264 14.3713 0.0105677 15.5844 1.91266e-05C21.8819 1.91266e-05 28.1688 1.91266e-05 34.4663 1.91266e-05C36.0485 0.0105677 37.6414 -0.063272 39.2131 0.200441C41.1118 0.4958 43 1.20255 44.4663 2.48947C45.8587 3.70255 46.7869 5.39032 47.2616 7.17302C47.6308 8.55487 47.7574 10 47.7574 11.4241C47.7574 16.2764 47.7574 21.1287 47.7574 25.9916C47.789 27.8481 47.7047 29.7258 47.1456 31.4979C46.576 33.3861 45.4367 35.1372 43.8122 36.2764C41.7764 37.7215 39.2447 38.2173 36.7869 38.249C34.0127 38.2595 31.2279 38.249 28.4536 38.249C27.4304 38.2701 26.4705 37.5 26.2701 36.4979C26.1751 36.0971 26.249 35.6857 26.2911 35.2743C26.6076 32.4051 26.0274 29.4409 24.6772 26.8882C23.0844 23.8397 20.3734 21.4135 17.1772 20.1477C13.654 18.7342 9.57174 18.7658 6.08018 20.2637C5.46836 20.5591 4.74051 20.6224 4.1076 20.3481C3.29537 20.0106 2.72575 19.1561 2.74684 18.2701C2.74684 15.8439 2.74684 13.4072 2.74684 10.981C2.77849 8.67091 3.20043 6.27639 4.46625 4.30382C5.50001 2.65825 7.13503 1.42407 8.95992 0.78061C9.91984 0.453606 10.9325 0.232087 11.9452 0.116053ZM13.4009 9.67302C12.8101 9.89453 12.3671 10.4642 12.3249 11.0971C12.2722 11.6561 12.5253 12.2258 12.9578 12.5739C15.2468 14.3988 17.5253 16.2342 19.8144 18.0591C20.943 18.9557 22.2827 19.5781 23.7068 19.8312C25.711 20.2004 27.8418 19.8312 29.6139 18.808C30.4051 18.365 31.0907 17.7532 31.7975 17.1941C33.5485 15.7806 35.3207 14.3882 37.0717 12.9747C37.3987 12.711 37.7679 12.4684 37.9789 12.0886C38.3376 11.4557 38.2426 10.6013 37.7257 10.0844C37.1667 9.48314 36.1435 9.39875 35.4895 9.91563C33.2215 11.73 30.9536 13.5443 28.6857 15.3587C28.0106 15.9177 27.1983 16.308 26.3439 16.4874C24.8355 16.8038 23.2004 16.4346 21.9874 15.4853C19.6772 13.6393 17.3776 11.8038 15.0675 9.95783C14.6034 9.56753 13.9494 9.46204 13.4009 9.67302Z" fill="#F6F6F7"></path>
      <path d="M10.3629 22.595C12.6308 22.3102 14.9937 22.7321 17.0084 23.8186C19.6772 25.2216 21.7236 27.7321 22.557 30.6329C23.2848 33.1329 23.1055 35.8756 22.0506 38.2595C21.0063 40.6857 19.0654 42.7005 16.692 43.8608C14.308 45.0317 11.5021 45.3165 8.92828 44.6414C6.33334 43.9768 3.99157 42.3524 2.47258 40.1266C0.858657 37.8059 0.183551 34.8735 0.616041 32.0886C0.974691 29.6203 2.18777 27.2996 4.00212 25.5908C5.74262 23.9557 8.00001 22.8903 10.3629 22.595ZM7.06119 29.1667C6.2595 29.1878 5.57385 29.9367 5.61604 30.7384C5.61604 31.5401 6.34389 32.2469 7.14558 32.2258C8.62237 32.2363 10.0886 32.2258 11.5654 32.2258C11.8924 32.2258 12.2405 32.1836 12.5253 32.0148C13.1477 31.6667 13.443 30.865 13.2004 30.1899C12.9895 29.5675 12.346 29.1351 11.692 29.1562C10.1519 29.1667 8.60127 29.1456 7.06119 29.1667ZM7.06119 35.2954C6.57596 35.3165 6.12237 35.5802 5.85866 35.9916C5.50001 36.519 5.53165 37.2574 5.92195 37.7532C6.22786 38.1646 6.73418 38.3756 7.24051 38.3545C10.0886 38.3545 12.9367 38.3545 15.7954 38.3545C16.2068 38.3545 16.6392 38.3861 17.019 38.1857C17.6941 37.8692 18.0422 37.0148 17.789 36.3186C17.5886 35.7068 16.9663 35.2743 16.3228 35.2848C13.2426 35.2954 10.1519 35.2848 7.06119 35.2954Z" fill="#2D55FB"></path>
    </g>
    <defs>
      <clipPath id="clip0_195_328">
        <rect width="47.2574" height="45" fill="white" transform="translate(0.5)"></rect>
      </clipPath>
    </defs>
  </symbol>
  <symbol fill="none" xmlns="http://www.w3.org/2000/svg" viewBox="0 0 25 24" id="facebook">
    <path d="M14.5 13.35H16.6429L17.5 9.75H14.5V7.95C14.5 7.023 14.5 6.15 16.2143 6.15H17.5V3.126C17.2206 3.0873 16.1654 3 15.0511 3C12.724 3 11.0714 4.4913 11.0714 7.23V9.75H8.5V13.35H11.0714V21H14.5V13.35Z" fill="#8F9BB7"></path>
  </symbol>
  <symbol fill="none" xmlns="http://www.w3.org/2000/svg" viewBox="0 0 39 30" id="folder">
    <g clip-path="url(#clip0_222_25)">
      <path d="M5.83585 0.303783C6.36931 0.0444596 6.97687 -0.00740501 7.5622 4.22692e-06C11.0668 4.22692e-06 14.5788 4.22692e-06 18.0833 4.22692e-06C18.2908 -0.0148142 18.4908 0.0666874 18.6168 0.2371C19.5059 1.28921 20.3876 2.34873 21.2767 3.40084C25.5963 3.40084 29.9085 3.40084 34.2281 3.40084C34.6726 3.40084 35.1172 3.38603 35.5543 3.46753C36.1989 3.60089 36.7916 3.94172 37.2288 4.43814C37.7252 4.97901 37.9771 5.70512 38.0068 6.43863V23.065C37.9697 23.6429 37.7993 24.2134 37.4659 24.6876C36.9843 25.4137 36.1767 25.8879 35.3246 26.0064C35.3246 20.983 35.3246 15.9521 35.3246 10.9286C35.332 10.3285 35.3172 9.72092 35.1246 9.15041C34.6948 7.70561 33.4649 6.54236 32.0053 6.18672C31.3755 6.0163 30.7235 6.05335 30.0789 6.05335C26.0112 6.05335 21.9361 6.05335 17.8685 6.05335C17.209 5.26797 16.5496 4.49 15.8976 3.70462C15.6531 3.40825 15.4086 3.08966 15.0678 2.89702C14.7492 2.70438 14.3713 2.65251 14.0008 2.65251C10.7037 2.65251 7.40661 2.65251 4.1095 2.65251C4.25768 1.65226 4.90969 0.733519 5.83585 0.303783Z" fill="#DF2DB1"></path>
      <path d="M1.81262 4.28254C2.28681 4.04544 2.82028 3.96394 3.34633 3.96394C6.92499 3.96394 10.5111 3.96394 14.0897 3.96394C14.2824 3.94912 14.475 4.03804 14.5936 4.19363C15.4901 5.25315 16.3718 6.31267 17.2683 7.36478C21.8176 7.36478 26.3594 7.35737 30.9087 7.37219C32.0719 7.35737 33.2056 8.04643 33.702 9.09854C33.9983 9.68387 34.0354 10.3507 34.0206 10.9953C34.0206 16.2336 34.0206 21.4646 34.0206 26.7029C34.0132 27.1326 33.9761 27.5772 33.8205 27.9847C33.5167 28.8368 32.8055 29.5406 31.9386 29.8296C31.3903 30.0222 30.805 30.0074 30.2345 30.0074C21.4175 30.0074 12.6005 30.0074 3.78348 30.0074C3.17592 30.0148 2.54613 30.0148 1.97562 29.7703C0.871646 29.3332 0.115904 28.207 0.0788574 27.0289V6.98691C0.108494 5.8533 0.782735 4.76414 1.81262 4.28254Z" fill="#F6F6F7"></path>
    </g>
    <defs>
      <clipPath id="clip0_222_25">
        <rect width="37.9353" height="30" fill="white" transform="translate(0.0788574)"></rect>
      </clipPath>
    </defs>
  </symbol>
  <symbol fill="none" xmlns="http://www.w3.org/2000/svg" viewBox="0 0 25 24" id="instagram">
    <path d="M15.06 12C15.06 12.5063 14.9099 13.0013 14.6286 13.4223C14.3473 13.8432 13.9474 14.1714 13.4797 14.3651C13.0119 14.5589 12.4972 14.6096 12.0006 14.5108C11.504 14.412 11.0478 14.1682 10.6898 13.8102C10.3318 13.4522 10.088 12.996 9.98919 12.4994C9.89041 12.0028 9.94111 11.4881 10.1349 11.0203C10.3286 10.5526 10.6568 10.1527 11.0777 9.87144C11.4987 9.59014 11.9937 9.44 12.5 9.44C13.1783 9.44211 13.8282 9.7125 14.3079 10.1921C14.7875 10.6718 15.0579 11.3217 15.06 12ZM20.5 8.48V15.52C20.5 16.7082 20.028 17.8477 19.1878 18.6878C18.3477 19.528 17.2082 20 16.02 20H8.98C7.79183 20 6.65232 19.528 5.81216 18.6878C4.972 17.8477 4.5 16.7082 4.5 15.52V8.48C4.5 7.29183 4.972 6.15232 5.81216 5.31216C6.65232 4.472 7.79183 4 8.98 4H16.02C17.2082 4 18.3477 4.472 19.1878 5.31216C20.028 6.15232 20.5 7.29183 20.5 8.48ZM16.34 12C16.34 11.2405 16.1148 10.4981 15.6928 9.86661C15.2709 9.23513 14.6712 8.74294 13.9695 8.4523C13.2678 8.16166 12.4957 8.08562 11.7509 8.23378C11.006 8.38195 10.3217 8.74768 9.78471 9.28471C9.24768 9.82174 8.88195 10.506 8.73378 11.2509C8.58562 11.9957 8.66166 12.7678 8.9523 13.4695C9.24294 14.1712 9.73513 14.7709 10.3666 15.1928C10.9981 15.6148 11.7405 15.84 12.5 15.84C13.5184 15.84 14.4952 15.4354 15.2153 14.7153C15.9354 13.9952 16.34 13.0184 16.34 12ZM17.62 7.84C17.62 7.65013 17.5637 7.46452 17.4582 7.30665C17.3527 7.14878 17.2028 7.02574 17.0274 6.95308C16.852 6.88042 16.6589 6.8614 16.4727 6.89845C16.2865 6.93549 16.1154 7.02692 15.9812 7.16118C15.8469 7.29544 15.7555 7.46649 15.7184 7.65271C15.6814 7.83893 15.7004 8.03196 15.7731 8.20738C15.8457 8.38279 15.9688 8.53272 16.1267 8.63821C16.2845 8.7437 16.4701 8.8 16.66 8.8C16.9146 8.8 17.1588 8.69886 17.3388 8.51882C17.5189 8.33879 17.62 8.09461 17.62 7.84Z" fill="#8F9BB7"></path>
  </symbol>
  <symbol fill="none" xmlns="http://www.w3.org/2000/svg" viewBox="0 0 25 24" id="linkedin">
    <path d="M8.06768 5.77857C8.06745 6.25004 7.87928 6.7021 7.54458 7.03532C7.20987 7.36853 6.75605 7.55559 6.28295 7.55536C5.80984 7.55512 5.35621 7.36761 5.02184 7.03406C4.68748 6.70051 4.49976 6.24826 4.5 5.77679C4.50024 5.30532 4.6884 4.85325 5.02311 4.52004C5.35781 4.18683 5.81163 3.99976 6.28473 4C6.75784 4.00024 7.21147 4.18775 7.54584 4.5213C7.8802 4.85484 8.06792 5.3071 8.06768 5.77857ZM8.1212 8.87173H4.55352V20H8.1212V8.87173ZM13.7581 8.87173H10.2083V20H13.7225V14.1603C13.7225 10.9072 17.9769 10.605 17.9769 14.1603V20H21.5V12.9515C21.5 7.46736 15.203 7.6718 13.7225 10.365L13.7581 8.87173Z" fill="#8F9BB7"></path>
  </symbol>
  <symbol fill="none" xmlns="http://www.w3.org/2000/svg" viewBox="0 0 43 30" id="mail">
    <g clip-path="url(#clip0_222_8)">
      <path d="M2.2926 0.358316C2.82594 0.133316 3.3926 -0.00835088 3.9676 -1.75464e-05C15.6343 -1.75464e-05 27.3009 -1.75464e-05 38.9676 -1.75464e-05C39.5426 -0.00835088 40.1176 0.133316 40.6426 0.366649C37.8009 3.23332 34.9176 6.06665 32.0593 8.92498C29.6343 11.3333 27.2093 13.75 24.7926 16.1583C24.4926 16.4416 24.2176 16.7583 23.8926 17.0166C22.9343 17.8666 21.5176 18.1416 20.3009 17.7333C19.6926 17.55 19.1676 17.175 18.7176 16.7416C13.3593 11.4083 8.00094 6.07498 2.63427 0.741649C2.5176 0.616649 2.3926 0.499982 2.2926 0.358316Z" fill="#B756FE"></path>
      <path d="M0.500944 2.14996C4.82594 6.42496 9.13428 10.7166 13.4509 15C9.13428 19.2833 4.82594 23.575 0.500944 27.85C0.300944 27.3916 0.167611 26.9 0.134277 26.3916V3.6083C0.167611 3.09996 0.300944 2.6083 0.500944 2.14996Z" fill="#F6F6F7"></path>
      <path d="M29.4843 15C33.8009 10.7166 38.1009 6.41663 42.4343 2.14996C42.6343 2.6083 42.7759 3.09996 42.8009 3.6083V26.4C42.7676 26.9 42.6343 27.4 42.4343 27.8583C38.1093 23.575 33.8009 19.2833 29.4843 15Z" fill="#F6F6F7"></path>
      <path d="M5.27594 26.6417C8.5926 23.35 11.9009 20.0583 15.2176 16.7667C15.8593 17.4 16.4843 18.0417 17.1259 18.6667C18.0593 19.575 19.2843 20.175 20.5676 20.3583C22.3926 20.6333 24.3259 20.05 25.6759 18.7917C26.3759 18.1333 27.0343 17.4417 27.7176 16.7667C30.3759 19.4083 33.0343 22.05 35.6926 24.6917C37.3426 26.3417 39.0176 27.9667 40.6509 29.6333C40.1259 29.8667 39.5509 30.0083 38.9759 30C27.3093 30 15.6426 30 3.97594 30C3.3926 30.0083 2.82594 29.8667 2.2926 29.6333C3.25927 28.6167 4.28427 27.6417 5.27594 26.6417Z" fill="#F6F6F7"></path>
    </g>
    <defs>
      <clipPath id="clip0_222_8">
        <rect width="42.6667" height="30" fill="white" transform="translate(0.134277)"></rect>
      </clipPath>
    </defs>
  </symbol>
  <symbol fill="none" xmlns="http://www.w3.org/2000/svg" viewBox="0 0 46 45" id="meeting">
    <g clip-path="url(#clip0_195_334)">
      <path d="M14.7471 0H31.2002C32.0264 0.0703125 32.8262 0.439453 33.3799 1.05469C33.9512 1.66992 34.2676 2.50488 34.2588 3.34863C34.2588 5.98535 34.2588 8.62207 34.2588 11.2588C34.2588 11.7334 34.2588 12.2256 34.1094 12.6826C33.7315 13.9922 32.4658 14.9766 31.0947 15.0117C29.7061 15.0205 28.3174 15.0117 26.9287 15.0117C25.9619 16.1016 25.0127 17.2002 24.0459 18.29C23.5098 18.9316 22.4287 18.9141 21.919 18.2549C21.1016 17.1826 20.293 16.0928 19.4844 15.0117C17.9639 15.0029 16.4346 15.0205 14.9053 15.0029C13.543 14.9678 12.2774 13.9922 11.8906 12.6826C11.75 12.252 11.7412 11.7949 11.75 11.3467C11.75 8.64844 11.75 5.95898 11.75 3.26074C11.75 2.36426 12.1455 1.48535 12.8047 0.878906C13.3321 0.37793 14.0264 0.0878906 14.7471 0Z" fill="#F6F6F7"></path>
      <path d="M0.693359 4.05176C1.12402 2.82129 2.35449 1.90723 3.66406 1.88086C5.4834 1.87207 7.30273 1.88086 9.11328 1.87207C8.99902 2.35547 8.92871 2.84766 8.9375 3.33984C8.9375 6.17871 8.92871 9.02637 8.94629 11.8652C8.97266 13.9131 10.1416 15.8555 11.8643 16.9365C10.915 18.0264 9.96582 19.1162 9.00781 20.1973C8.48047 20.8125 7.43457 20.751 6.93359 20.127C6.10742 19.0547 5.29883 17.9561 4.47266 16.875C3.75195 16.9014 2.99609 16.8838 2.33691 16.5322C1.31738 16.04 0.623047 15.0029 0.5 13.8779V4.88672C0.543945 4.60547 0.59668 4.32422 0.693359 4.05176Z" fill="#FFC933"></path>
      <path d="M36.8779 1.87207C38.6709 1.87207 40.4551 1.87207 42.248 1.87207C43.2412 1.87207 44.208 2.36426 44.8057 3.15527C45.21 3.67383 45.4385 4.31543 45.4912 4.96582V13.8516C45.3682 15.126 44.4893 16.2861 43.2676 16.6904C42.6963 16.9014 42.0811 16.8662 41.4834 16.875C40.71 17.9297 39.9189 18.9668 39.1367 20.0215C38.7852 20.5225 38.0908 20.7598 37.5107 20.54C37.1328 20.4258 36.8955 20.0918 36.6494 19.8105C35.8057 18.8525 34.9619 17.8857 34.1182 16.9277C35.4893 16.0664 36.5176 14.6689 36.8779 13.0869C37.0801 12.2783 37.0361 11.4434 37.0361 10.626C37.0361 8.2002 37.0361 5.76562 37.0361 3.33984C37.0625 2.84766 37.001 2.35547 36.8779 1.87207Z" fill="#FFC933"></path>
      <path d="M22.5869 21.5771C23.7031 21.498 24.8369 21.7529 25.8037 22.3154C27.1397 23.0889 28.1328 24.4248 28.4756 25.9277C28.7305 27.0264 28.6426 28.1953 28.2295 29.2412C27.6494 30.7353 26.3926 31.957 24.8721 32.4932C23.9053 32.8359 22.8418 32.9062 21.8398 32.6953C20.3193 32.3789 18.9482 31.3945 18.1572 30.0586C17.5596 29.0566 17.2871 27.8701 17.3926 26.71C17.4981 25.3916 18.0869 24.126 19.0361 23.2031C19.9766 22.2539 21.2598 21.665 22.5869 21.5771Z" fill="#F6F6F7"></path>
      <path d="M7.64549 24.3897C8.73534 24.2842 9.86034 24.6797 10.6338 25.4531C11.4072 26.209 11.8203 27.3076 11.7412 28.3887C11.6797 29.3731 11.1963 30.3135 10.458 30.9551C9.6494 31.667 8.51561 31.9922 7.45213 31.8252C6.36229 31.6758 5.36034 30.999 4.79784 30.0586C4.23534 29.1445 4.1035 27.9756 4.44628 26.9561C4.87694 25.5674 6.1953 24.5127 7.64549 24.3897Z" fill="#F6F6F7"></path>
      <path d="M37.625 24.3984C38.6358 24.3017 39.6729 24.6181 40.4375 25.2861C41.2549 25.9804 41.7471 27.0527 41.7471 28.1338C41.7559 29.2588 41.2197 30.3662 40.3408 31.0605C39.5059 31.7373 38.3721 32.0185 37.3174 31.8164C36.2539 31.623 35.2871 30.9463 34.751 30.0058C34.2149 29.083 34.1006 27.9316 34.4522 26.9297C34.9004 25.5586 36.1924 24.5215 37.625 24.3984Z" fill="#F6F6F7"></path>
      <path d="M2.57422 34.7784C3.46191 34.1104 4.57812 33.7412 5.68555 33.75C7.24121 33.75 8.78809 33.75 10.3438 33.75C11.2754 33.75 12.207 34.0137 13.0068 34.4971C12.1191 35.1826 11.3633 36.044 10.8271 37.0371C10.124 38.3203 9.8252 39.7969 9.87793 41.2471C7.22363 41.2471 4.56934 41.2471 1.90625 41.2471C1.21191 41.2559 0.59668 40.6846 0.5 40.0078V38.628C0.587891 37.125 1.35254 35.6748 2.57422 34.7784Z" fill="#F6F6F7"></path>
      <path d="M32.9932 34.4971C33.793 34.0137 34.7246 33.75 35.6562 33.75C37.2119 33.75 38.7588 33.75 40.3057 33.75C41.668 33.7412 43.0303 34.2949 43.9883 35.2617C44.8848 36.1494 45.4209 37.3799 45.5 38.6279V39.9902C45.4297 40.4472 45.1572 40.8691 44.7441 41.0888C44.3926 41.2998 43.9619 41.2471 43.5664 41.2558C41.0879 41.2558 38.6094 41.2558 36.1309 41.2558C36.1396 40.5088 36.1045 39.7617 35.9287 39.0322C35.5244 37.2305 34.4609 35.6045 32.9932 34.4971Z" fill="#F6F6F7"></path>
      <path d="M16.25 35.877C17.1816 35.543 18.1748 35.6309 19.1416 35.6221C22.1299 35.6221 25.1182 35.6221 28.1064 35.6221C29.1875 35.6133 30.2686 35.9473 31.1475 36.5801C32.167 37.3008 32.9053 38.4082 33.1777 39.6299C33.3623 40.377 33.3008 41.1504 33.3096 41.915C33.3008 42.5039 33.3184 43.084 33.3008 43.6728C33.2832 44.3408 32.7207 44.9033 32.0703 44.9912H13.9473C13.2617 44.9033 12.6729 44.2881 12.6904 43.585C12.6904 42.5566 12.6816 41.5371 12.6992 40.5088C12.7783 38.4346 14.2637 36.501 16.25 35.877Z" fill="#F6F6F7"></path>
    </g>
    <defs>
      <clipPath id="clip0_195_334">
        <rect width="45" height="45" fill="white" transform="translate(0.5)"></rect>
      </clipPath>
    </defs>
  </symbol>
  <symbol xmlns="http://www.w3.org/2000/svg" viewBox="0 0 30 30" id="menu">
    <path d="M 3 7 A 1.0001 1.0001 0 1 0 3 9 L 27 9 A 1.0001 1.0001 0 1 0 27 7 L 3 7 z M 3 14 A 1.0001 1.0001 0 1 0 3 16 L 27 16 A 1.0001 1.0001 0 1 0 27 14 L 3 14 z M 3 21 A 1.0001 1.0001 0 1 0 3 23 L 27 23 A 1.0001 1.0001 0 1 0 27 21 L 3 21 z"></path>
  </symbol>
  <symbol fill="none" xmlns="http://www.w3.org/2000/svg" viewBox="0 0 46 45" id="pipeline">
    <g clip-path="url(#clip0_195_411)">
      <path d="M37.5547 0H45.5V13.2363C42.8545 13.2275 40.209 13.2451 37.5547 13.2275C37.5635 8.82422 37.5547 4.41211 37.5547 0Z" fill="#32CAFD"></path>
      <path d="M3.83105 6.84668C5.75586 5.01855 8.38379 3.97266 11.0381 3.97266C18.9922 3.97266 26.9551 3.97266 34.9092 3.97266C34.9092 5.73926 34.9092 7.49707 34.9092 9.26367C27.1924 9.26367 19.4756 9.26367 11.75 9.26367C11.3457 9.26367 10.9326 9.25488 10.5283 9.29004C9.3418 9.42187 8.19922 9.95801 7.35547 10.8105C6.35352 11.7949 5.78223 13.1924 5.79102 14.5898C5.79102 15.9873 6.37988 17.3672 7.39062 18.3428C8.35742 19.292 9.69336 19.8457 11.0469 19.8545C12.8223 19.8545 14.6064 19.8545 16.3818 19.8545C16.3818 21.6211 16.3818 23.3789 16.3818 25.1455C14.6328 25.1543 12.8838 25.1455 11.1348 25.1455C9.93066 25.1455 8.72656 24.9521 7.58398 24.5479C5.07031 23.6777 2.92578 21.8145 1.69531 19.4502C0.992188 18.123 0.614258 16.6377 0.5 15.1436V14.2646C0.570312 11.4785 1.79199 8.74512 3.83105 6.84668Z" fill="#F6F6F7"></path>
      <path d="M19.0273 15.8818C21.6729 15.8818 24.3184 15.8818 26.9639 15.8818C26.9639 20.2939 26.9639 24.7061 26.9639 29.1182C24.3184 29.1182 21.6729 29.1182 19.0273 29.1182C19.0273 24.7061 19.0273 20.2939 19.0273 15.8818Z" fill="#32CAFD"></path>
      <path d="M29.6182 19.8545C31.3672 19.8457 33.1162 19.8545 34.8564 19.8545C36.1133 19.8545 37.3701 20.0654 38.5479 20.4961C41.0703 21.4102 43.1973 23.3262 44.3838 25.7256C45.0518 27.0527 45.4121 28.5293 45.4912 30.0146V30.9023C45.3945 32.6689 44.8936 34.4092 43.9619 35.9209C42.4238 38.5137 39.6992 40.3857 36.7109 40.8691C35.6387 41.0713 34.54 41.0186 33.4502 41.0273C25.9971 41.0273 18.5352 41.0273 11.082 41.0273C11.082 39.2607 11.082 37.5029 11.082 35.7363C18.623 35.7363 26.1641 35.7363 33.7139 35.7363C34.6016 35.7275 35.5068 35.7979 36.377 35.5254C38.0732 35.0508 39.4619 33.6709 39.9717 31.9834C40.4287 30.5244 40.2002 28.8633 39.3652 27.5801C38.6006 26.376 37.335 25.5146 35.9287 25.2422C35.3223 25.1104 34.6895 25.1455 34.0742 25.1455C32.5889 25.1455 31.1035 25.1455 29.6182 25.1455C29.6182 23.3789 29.6182 21.6211 29.6182 19.8545Z" fill="#F6F6F7"></path>
      <path d="M0.5 31.7637C3.14551 31.7637 5.79102 31.7637 8.44531 31.7725C8.44531 36.1846 8.44531 40.5967 8.44531 45H0.5V31.7637Z" fill="#32CAFD"></path>
    </g>
    <defs>
      <clipPath id="clip0_195_411">
        <rect width="45" height="45" fill="white" transform="translate(0.5)"></rect>
      </clipPath>
    </defs>
  </symbol>
  <symbol fill="none" xmlns="http://www.w3.org/2000/svg" viewBox="0 0 58 41" id="quote">
    <path d="M25.5283 15.6342C25.5283 6.06226 20.0382 0 12.449 0C5.34419 0 0.5 4.94553 0.5 11.965C0.5 18.9844 5.18272 22.9728 10.9958 22.9728C12.772 22.9728 14.2252 22.6537 15.517 22.1751C15.517 27.7588 10.5113 32.0661 3.56799 33.3424V41C16.4858 39.4047 25.5283 29.035 25.5283 15.6342ZM57.5 15.6342C57.5 6.06226 52.0099 0 44.4207 0C37.3159 0 32.4717 4.94553 32.4717 11.965C32.4717 18.9844 36.9929 22.9728 42.806 22.9728C44.5822 22.9728 46.0354 22.6537 47.3272 22.1751C47.3272 27.7588 42.483 32.0661 35.5397 33.3424V41C48.4575 39.4047 57.5 29.035 57.5 15.6342Z" fill="#060B27"></path>
  </symbol>
  <symbol fill="none" xmlns="http://www.w3.org/2000/svg" viewBox="0 0 35 45" id="report">
    <g clip-path="url(#clip0_195_345)">
      <path d="M1.64246 0H25.6805C26.3309 0.0703125 26.8759 0.650391 26.8671 1.30957C26.8759 12.6211 26.8671 23.9326 26.8671 35.2441C26.8583 35.6045 26.911 36 26.7352 36.334C26.5155 36.8174 25.9882 37.1162 25.4608 37.0898C17.577 37.0898 9.69324 37.0898 1.80945 37.0898C1.10632 37.0986 0.4823 36.4746 0.499878 35.7803C0.499878 24.4688 0.499878 13.1572 0.499878 1.8457C0.508667 1.47656 0.455933 1.08984 0.631714 0.74707C0.816284 0.351563 1.22058 0.0878906 1.64246 0ZM5.53601 6.70606C4.79773 6.8291 4.27918 7.65527 4.51648 8.37598C4.66589 8.9209 5.21082 9.3252 5.77332 9.31641C8.41004 9.31641 11.0468 9.31641 13.6835 9.31641C14.3866 9.33399 15.0106 8.70117 15.0018 7.99805C15.0194 7.29492 14.3866 6.66211 13.6835 6.67969C11.0731 6.67969 8.47156 6.67969 5.86121 6.67969C5.75574 6.67969 5.64148 6.68848 5.53601 6.70606ZM5.52722 11.9795C4.85925 12.0938 4.35828 12.7881 4.47253 13.4561C4.55164 14.0889 5.1405 14.5986 5.77332 14.5898C10.8973 14.5898 16.0302 14.5898 21.1542 14.5898C21.4706 14.5898 21.8046 14.6162 22.1034 14.4844C22.7098 14.2471 23.0614 13.5176 22.8593 12.9023C22.7098 12.3574 22.1649 11.9531 21.5936 11.9619C16.4696 11.9619 11.3368 11.9619 6.21277 11.9619C5.98425 11.9531 5.75574 11.9443 5.52722 11.9795ZM5.52722 17.2529C4.76257 17.3848 4.24402 18.2637 4.53406 18.9844C4.70984 19.5029 5.22839 19.8633 5.77332 19.8633C11.0204 19.8633 16.2675 19.8633 21.5057 19.8633C21.9628 19.8809 22.4286 19.6611 22.6835 19.2832C22.9735 18.8701 22.9823 18.2988 22.7186 17.8682C22.4725 17.4463 21.9891 17.209 21.5057 17.2266C16.4344 17.2266 11.3632 17.2266 6.30066 17.2266C6.04578 17.2266 5.7821 17.209 5.52722 17.2529ZM5.52722 22.5264C4.85925 22.6406 4.35828 23.335 4.47253 24.0117C4.55164 24.6445 5.1405 25.1455 5.77332 25.1367C11.0204 25.1367 16.2587 25.1367 21.5057 25.1367C22.0331 25.1631 22.5604 24.8643 22.7802 24.3809C23.035 23.8711 22.8944 23.2119 22.4725 22.8428C22.1913 22.5791 21.7958 22.4736 21.4178 22.5C16.3817 22.5 11.3368 22.5 6.30066 22.5C6.04578 22.5 5.7821 22.4824 5.52722 22.5264ZM16.0741 27.7998C15.4061 27.9141 14.9052 28.6084 15.0194 29.2764C15.0985 29.9092 15.6874 30.4189 16.329 30.4102C18.0516 30.4102 19.7831 30.4102 21.5057 30.4102C22.244 30.4629 22.9296 29.8301 22.9208 29.0918C22.9296 28.3975 22.3143 27.7647 21.6112 27.7734C19.9061 27.7734 18.2098 27.7734 16.5048 27.7734C16.3553 27.7734 16.2147 27.7734 16.0741 27.7998Z" fill="#F6F6F7"></path>
      <path d="M29.5039 7.99802C30.8223 7.99802 32.1494 7.99802 33.4678 7.99802C34.1621 7.98923 34.7861 8.61325 34.7773 9.30759C34.7861 20.7422 34.7773 32.1679 34.7773 43.6025C34.8213 44.2881 34.2764 44.9209 33.5996 45H9.60547C8.95508 44.9297 8.41016 44.3496 8.41895 43.6904C8.41016 42.372 8.41895 41.0537 8.41895 39.7265C14.0439 39.7265 19.6689 39.7265 25.2939 39.7265C25.8828 39.7353 26.4805 39.665 27.0254 39.4365C28.4932 38.8652 29.5303 37.3447 29.5127 35.7627C29.5127 26.5078 29.5039 17.2529 29.5039 7.99802Z" fill="#41E88D"></path>
    </g>
    <defs>
      <clipPath id="clip0_195_345">
        <rect width="34.2861" height="45" fill="white" transform="translate(0.5)"></rect>
      </clipPath>
    </defs>
  </symbol>
  <symbol fill="none" xmlns="http://www.w3.org/2000/svg" viewBox="0 0 25 24" id="twitter">
    <path d="M21.5 6.76471C20.8375 7.07353 20.1233 7.27647 19.3834 7.37353C20.1405 6.90588 20.7256 6.16471 21.001 5.27353C20.2868 5.71471 19.4952 6.02353 18.6606 6.2C17.9809 5.44118 17.0258 5 15.9417 5C13.9197 5 12.2677 6.69412 12.2677 8.78529C12.2677 9.08529 12.3021 9.37647 12.3623 9.65C9.29924 9.49118 6.5717 7.98235 4.75621 5.69706C4.43786 6.25294 4.25717 6.90588 4.25717 7.59412C4.25717 8.90882 4.90249 10.0735 5.90057 10.7353C5.28967 10.7353 4.7218 10.5588 4.22275 10.2941V10.3206C4.22275 12.1559 5.49618 13.6912 7.1826 14.0353C6.64116 14.1872 6.07274 14.2084 5.52199 14.0971C5.75568 14.8492 6.21337 15.5074 6.8307 15.9791C7.44804 16.4507 8.19398 16.7121 8.96367 16.7265C7.65896 17.7857 6.04168 18.3582 4.37763 18.35C4.08509 18.35 3.79254 18.3324 3.5 18.2971C5.1348 19.3735 7.07935 20 9.16157 20C15.9417 20 19.6673 14.2294 19.6673 9.22647C19.6673 9.05882 19.6673 8.9 19.6587 8.73235C20.3815 8.20294 21.001 7.53235 21.5 6.76471Z" fill="#8F9BB7"></path>
  </symbol>
  <symbol fill="none" xmlns="http://www.w3.org/2000/svg" viewBox="0 0 54 45" id="user">
    <path d="M25.854 2.08023C27.4782 1.85361 29.1684 2.10856 30.6415 2.82622C32.6056 3.76106 34.1731 5.48909 34.9097 7.53818C35.8445 10.0689 35.4385 13.0622 33.8426 15.2435C32.4262 17.2737 30.0561 18.6052 27.582 18.7468C25.1175 18.9357 22.6057 17.9347 20.9248 16.1312C19.8295 14.9791 19.0741 13.506 18.7908 11.9385C18.3942 9.91778 18.7908 7.75537 19.8767 6.00845C21.1609 3.89326 23.4083 2.40129 25.854 2.08023Z" fill="white"></path>
    <path d="M11.4632 9.87058C12.8702 9.68173 14.3433 9.99334 15.5614 10.7393C16.7229 11.4475 17.6388 12.5429 18.1393 13.8177C18.6681 15.168 18.7059 16.6977 18.2432 18.067C17.6105 20.0027 15.9675 21.5702 14.0033 22.1274C12.5208 22.5523 10.8778 22.4012 9.49912 21.7119C8.14879 21.0414 7.06287 19.8705 6.4963 18.4824C5.94862 17.1699 5.87307 15.659 6.28856 14.2993C6.94956 11.9669 9.06475 10.1539 11.4632 9.87058Z" fill="#B756FE"></path>
    <path d="M41.0097 9.8611C42.3695 9.70058 43.7859 9.98386 44.9663 10.6921C46.1561 11.4003 47.1098 12.5145 47.6103 13.8082C48.1863 15.2718 48.1863 16.9527 47.5914 18.4069C47.0343 19.8327 45.9295 21.0225 44.5602 21.7024C43.5593 22.2123 42.4073 22.4201 41.293 22.3445C39.31 22.2123 37.4404 21.0414 36.4205 19.3417C35.0796 17.2454 35.2213 14.3464 36.7227 12.3729C37.7236 10.9848 39.31 10.0594 41.0097 9.8611Z" fill="#B756FE"></path>
    <path d="M22.0297 20.5315C22.6813 20.4749 23.3423 20.4937 23.9938 20.4937C26.4206 20.4937 28.838 20.4937 31.2648 20.4937C32.9456 20.4843 34.617 21.1075 35.8823 22.2218C37.0721 23.2605 37.9031 24.7052 38.158 26.2633C38.2997 27.0093 38.2619 27.7742 38.2714 28.539C38.2714 32.8827 38.2714 37.217 38.2714 41.5607C38.2902 42.0989 37.9692 42.6372 37.4687 42.8638C37.1288 43.0338 36.7322 42.996 36.3639 43.0054C29.9711 43.0054 23.5878 43.0054 17.195 43.0054C16.4207 43.0432 15.7219 42.3444 15.7691 41.5701C15.7691 36.8865 15.7691 32.1934 15.7691 27.5098C15.7691 25.9895 16.2696 24.4692 17.195 23.2605C18.347 21.7308 20.1411 20.7204 22.0297 20.5315Z" fill="white"></path>
    <path d="M5.1176 25.98C6.34516 24.8374 7.98821 24.1764 9.65959 24.1387C10.9627 24.1198 12.2658 24.1292 13.5689 24.1292C13.1534 25.3001 12.9646 26.5371 12.974 27.7836C12.974 31.9101 12.974 36.0272 12.974 40.1537C12.9835 41.1074 12.8985 42.08 13.2101 42.996C11.5765 42.996 9.95232 42.996 8.31871 42.996C7.62939 42.9865 6.94006 43.0243 6.25073 42.911C5.46698 42.7599 4.73988 42.3916 4.15443 41.844C3.35179 41.0885 2.89853 39.9932 2.85132 38.8789V30.9375C2.90798 29.0678 3.7295 27.2359 5.1176 25.98Z" fill="#B756FE"></path>
    <path d="M40.481 24.1293C41.633 24.1198 42.785 24.1293 43.9276 24.1293C44.6264 24.1293 45.3346 24.1859 46.005 24.3653C47.5253 24.7619 48.8945 25.7062 49.8294 26.9715C50.6792 28.1141 51.1513 29.5117 51.1891 30.9375V38.8789C51.1419 39.5116 51.0191 40.1537 50.717 40.7203C50.1315 41.8723 48.9795 42.7222 47.7047 42.9299C47.0437 43.0338 46.3827 42.996 45.7123 43.0055C44.0787 43.0055 42.4545 43.0055 40.8209 43.0055C40.9814 42.4861 41.0664 41.9384 41.057 41.3907C41.057 36.7921 41.057 32.1934 41.057 27.6042C41.0759 26.4144 40.8681 25.2435 40.481 24.1293Z" fill="#B756FE"></path>
  </symbol>
</svg>