<svg width="25" height="24" viewBox="0 0 25 24" fill="none" xmlns="http://www.w3.org/2000/svg">
<path d="M21.5 6.76471C20.8375 7.07353 20.1233 7.27647 19.3834 7.37353C20.1405 6.90588 20.7256 6.16471 21.001 5.27353C20.2868 5.71471 19.4952 6.02353 18.6606 6.2C17.9809 5.44118 17.0258 5 15.9417 5C13.9197 5 12.2677 6.69412 12.2677 8.78529C12.2677 9.08529 12.3021 9.37647 12.3623 9.65C9.29924 9.49118 6.5717 7.98235 4.75621 5.69706C4.43786 6.25294 4.25717 6.90588 4.25717 7.59412C4.25717 8.90882 4.90249 10.0735 5.90057 10.7353C5.28967 10.7353 4.7218 10.5588 4.22275 10.2941V10.3206C4.22275 12.1559 5.49618 13.6912 7.1826 14.0353C6.64116 14.1872 6.07274 14.2084 5.52199 14.0971C5.75568 14.8492 6.21337 15.5074 6.8307 15.9791C7.44804 16.4507 8.19398 16.7121 8.96367 16.7265C7.65896 17.7857 6.04168 18.3582 4.37763 18.35C4.08509 18.35 3.79254 18.3324 3.5 18.2971C5.1348 19.3735 7.07935 20 9.16157 20C15.9417 20 19.6673 14.2294 19.6673 9.22647C19.6673 9.05882 19.6673 8.9 19.6587 8.73235C20.3815 8.20294 21.001 7.53235 21.5 6.76471Z" fill="#8F9BB7"/>
</svg>
