<svg width="54" height="45" viewBox="0 0 54 45" fill="none" xmlns="http://www.w3.org/2000/svg">
<path d="M25.854 2.08023C27.4782 1.85361 29.1684 2.10856 30.6415 2.82622C32.6056 3.76106 34.1731 5.48909 34.9097 7.53818C35.8445 10.0689 35.4385 13.0622 33.8426 15.2435C32.4262 17.2737 30.0561 18.6052 27.582 18.7468C25.1175 18.9357 22.6057 17.9347 20.9248 16.1312C19.8295 14.9791 19.0741 13.506 18.7908 11.9385C18.3942 9.91778 18.7908 7.75537 19.8767 6.00845C21.1609 3.89326 23.4083 2.40129 25.854 2.08023Z" fill="white"/>
<path d="M11.4632 9.87058C12.8702 9.68173 14.3433 9.99334 15.5614 10.7393C16.7229 11.4475 17.6388 12.5429 18.1393 13.8177C18.6681 15.168 18.7059 16.6977 18.2432 18.067C17.6105 20.0027 15.9675 21.5702 14.0033 22.1274C12.5208 22.5523 10.8778 22.4012 9.49912 21.7119C8.14879 21.0414 7.06287 19.8705 6.4963 18.4824C5.94862 17.1699 5.87307 15.659 6.28856 14.2993C6.94956 11.9669 9.06475 10.1539 11.4632 9.87058Z" fill="#B756FE"/>
<path d="M41.0097 9.8611C42.3695 9.70058 43.7859 9.98386 44.9663 10.6921C46.1561 11.4003 47.1098 12.5145 47.6103 13.8082C48.1863 15.2718 48.1863 16.9527 47.5914 18.4069C47.0343 19.8327 45.9295 21.0225 44.5602 21.7024C43.5593 22.2123 42.4073 22.4201 41.293 22.3445C39.31 22.2123 37.4404 21.0414 36.4205 19.3417C35.0796 17.2454 35.2213 14.3464 36.7227 12.3729C37.7236 10.9848 39.31 10.0594 41.0097 9.8611Z" fill="#B756FE"/>
<path d="M22.0297 20.5315C22.6813 20.4749 23.3423 20.4937 23.9938 20.4937C26.4206 20.4937 28.838 20.4937 31.2648 20.4937C32.9456 20.4843 34.617 21.1075 35.8823 22.2218C37.0721 23.2605 37.9031 24.7052 38.158 26.2633C38.2997 27.0093 38.2619 27.7742 38.2714 28.539C38.2714 32.8827 38.2714 37.217 38.2714 41.5607C38.2902 42.0989 37.9692 42.6372 37.4687 42.8638C37.1288 43.0338 36.7322 42.996 36.3639 43.0054C29.9711 43.0054 23.5878 43.0054 17.195 43.0054C16.4207 43.0432 15.7219 42.3444 15.7691 41.5701C15.7691 36.8865 15.7691 32.1934 15.7691 27.5098C15.7691 25.9895 16.2696 24.4692 17.195 23.2605C18.347 21.7308 20.1411 20.7204 22.0297 20.5315Z" fill="white"/>
<path d="M5.1176 25.98C6.34516 24.8374 7.98821 24.1764 9.65959 24.1387C10.9627 24.1198 12.2658 24.1292 13.5689 24.1292C13.1534 25.3001 12.9646 26.5371 12.974 27.7836C12.974 31.9101 12.974 36.0272 12.974 40.1537C12.9835 41.1074 12.8985 42.08 13.2101 42.996C11.5765 42.996 9.95232 42.996 8.31871 42.996C7.62939 42.9865 6.94006 43.0243 6.25073 42.911C5.46698 42.7599 4.73988 42.3916 4.15443 41.844C3.35179 41.0885 2.89853 39.9932 2.85132 38.8789V30.9375C2.90798 29.0678 3.7295 27.2359 5.1176 25.98Z" fill="#B756FE"/>
<path d="M40.481 24.1293C41.633 24.1198 42.785 24.1293 43.9276 24.1293C44.6264 24.1293 45.3346 24.1859 46.005 24.3653C47.5253 24.7619 48.8945 25.7062 49.8294 26.9715C50.6792 28.1141 51.1513 29.5117 51.1891 30.9375V38.8789C51.1419 39.5116 51.0191 40.1537 50.717 40.7203C50.1315 41.8723 48.9795 42.7222 47.7047 42.9299C47.0437 43.0338 46.3827 42.996 45.7123 43.0055C44.0787 43.0055 42.4545 43.0055 40.8209 43.0055C40.9814 42.4861 41.0664 41.9384 41.057 41.3907C41.057 36.7921 41.057 32.1934 41.057 27.6042C41.0759 26.4144 40.8681 25.2435 40.481 24.1293Z" fill="#B756FE"/>
</svg>
