<svg width="966" height="383" viewBox="0 0 966 383" fill="none" xmlns="http://www.w3.org/2000/svg">
<path d="M966 426.741C860.872 343.575 812.308 313.642 725.255 366.761C626.428 303.425 589.071 324.725 483 390.775C429.983 339.014 409.644 317.525 385.079 349.909C324.591 279.523 291.347 256.489 240.67 317.789C235.177 324.418 227.891 329.329 219.682 331.936C211.472 334.543 202.686 334.736 194.37 332.491C118.071 311.794 44.753 398.466 0 426.741H966Z" fill="#5865F2" fill-opacity="0.2"/>
<path d="M892.946 371.473C891.437 370.153 889.097 369.475 886.305 369.475C883.935 369.511 881.584 369.892 879.324 370.606L877.815 371.096C877.86 370.002 877.732 368.908 877.437 367.854C876.607 364.536 874.419 361.822 871.136 359.974C866.23 357.185 859.325 356.732 852.721 358.73C851.431 359.112 850.167 359.591 848.948 360.163C848.382 358.328 847.597 356.569 846.608 354.923C840.684 344.97 828.383 339.126 819.176 341.916C815.251 343.085 812.308 345.762 810.912 349.381C809.1 354.056 809.893 359.824 813.138 365.252C817.93 373.358 827.137 378.937 835.59 378.975C835.665 379.465 835.741 379.955 835.854 380.408C836.099 381.309 836.439 382.181 836.873 383.009H837.741C837.231 382.138 836.85 381.198 836.609 380.219C836.469 379.674 836.367 379.12 836.307 378.56C836.299 378.467 836.254 378.381 836.182 378.318C836.115 378.255 836.024 378.221 835.93 378.221H835.666C827.439 378.221 818.459 372.755 813.78 364.875C810.685 359.635 809.893 354.093 811.591 349.645C812.912 346.252 815.704 343.764 819.402 342.633C828.27 339.956 840.194 345.649 845.967 355.3C846.986 357.028 847.786 358.877 848.344 360.804C848.389 360.904 848.469 360.985 848.571 361.03C848.669 361.068 848.774 361.068 848.873 361.03C850.186 360.392 851.548 359.863 852.948 359.447C859.363 357.524 866.004 357.939 870.758 360.615C873.853 362.387 875.928 364.951 876.72 368.042C877.03 369.209 877.132 370.421 877.022 371.624C877.026 371.752 877.079 371.874 877.173 371.963C877.226 372.006 877.29 372.033 877.354 372.039C877.422 372.046 877.49 372.033 877.551 372.001L879.551 371.322C885.06 369.663 890.003 369.927 892.456 372.038C893.776 373.132 894.305 374.677 894.041 376.487C893.776 378.296 892.531 380.86 890.607 383.009H891.588C893.361 380.898 894.531 378.673 894.795 376.6C895.059 374.526 894.456 372.717 892.946 371.473Z" fill="#808AFF"/>
<path d="M39.9811 207.482C72.9233 190.894 96.2054 203.75 96.2054 203.75C112.507 198.698 126.846 202.242 134.279 208.01C138.883 211.629 128.544 210.988 105.337 210.988H40.849C40.3586 210.988 39.8883 210.794 39.5416 210.447C39.1948 210.101 39 209.631 39 209.141C39.003 208.803 39.0953 208.471 39.2676 208.18C39.4398 207.888 39.6859 207.648 39.9811 207.482Z" fill="#5865F2" fill-opacity="0.2"/>
<path d="M307.724 219.496C316.064 215.274 321.95 218.554 321.95 218.554C326.063 217.272 329.723 218.177 331.572 219.609C332.742 220.552 330.138 220.363 324.252 220.363H307.913C307.793 220.363 307.677 220.316 307.593 220.231C307.508 220.146 307.46 220.031 307.46 219.911C307.459 219.824 307.484 219.738 307.531 219.665C307.578 219.591 307.645 219.533 307.724 219.496Z" fill="#5865F2" fill-opacity="0.2"/>
<path d="M889.885 226.908C889.832 223.635 888.644 220.482 886.523 217.987C884.402 215.491 881.482 213.809 878.255 213.226C875.033 212.643 871.705 213.196 868.844 214.791C865.984 216.385 863.762 218.923 862.565 221.97C861.513 221.741 860.437 221.627 859.358 221.63C857.192 221.624 855.053 222.093 853.09 223.005C851.128 223.918 849.389 225.25 848 226.908H889.885Z" fill="#5865F2" fill-opacity="0.2"/>
<path d="M134.413 10C132.15 10.0011 129.92 10.5504 127.916 11.6007C125.912 12.6514 124.192 14.1718 122.904 16.0319C117.867 13.7394 112.278 12.9398 106.799 13.7285C101.321 14.5172 96.1844 16.8606 92 20.4805H147.96C147.177 17.4845 145.423 14.8316 142.973 12.936C140.522 11.0401 137.513 10.0079 134.413 10Z" fill="#5865F2" fill-opacity="0.2"/>
<path d="M839.8 44.9042C840.747 44.9144 841.686 44.715 842.547 44.3203C843.407 43.9252 844.169 43.3446 844.781 42.62C845.388 41.8958 845.83 41.0453 846.071 40.1299C846.313 39.2146 846.35 38.2574 846.177 37.3266C844.369 27.5835 839.434 18.6931 832.125 11.9977C824.812 5.30222 815.518 1.16543 805.646 0.212006C795.771 -0.741796 785.858 1.53979 777.398 6.71181C768.938 11.8838 762.391 19.6654 758.746 28.8819C755.373 28.1546 751.931 27.7878 748.483 27.7886C741.853 27.7776 735.291 29.1503 729.223 31.8183C723.155 34.4863 717.71 38.3912 713.239 43.2831C713.118 43.4238 713.039 43.5957 713.012 43.7793C712.982 43.9629 713.008 44.1506 713.084 44.3206C713.159 44.4903 713.28 44.6354 713.435 44.7387C713.59 44.842 713.771 44.8993 713.956 44.9042H839.8Z" fill="#5865F2" fill-opacity="0.2"/>
<path d="M649.258 382.774H648.503C648.805 374.253 647.22 368.712 643.635 365.884C640.05 363.057 634.051 362.868 625.636 365.469C625.534 365.495 625.425 365.482 625.334 365.432C625.24 365.37 625.172 365.276 625.145 365.168C624.911 363.652 624.289 362.223 623.334 361.02C622.383 359.817 621.134 358.882 619.712 358.306C616.089 356.836 611.599 357.666 607.75 360.493C598.392 367.317 599.411 379.531 599.411 379.644C599.411 379.722 599.392 379.799 599.35 379.865C599.312 379.932 599.252 379.986 599.184 380.021C599.116 380.058 599.041 380.07 598.965 380.056C598.89 380.042 598.818 380.004 598.769 379.946C593.901 375.611 590.505 373.914 587.751 374.404C584.996 374.894 582.506 377.835 579.675 382.774H578.808C581.864 377.42 584.355 374.216 587.6 373.65C590.845 373.085 593.901 374.743 598.618 378.815C598.58 375.799 599.109 365.884 607.297 359.89C611.372 356.912 616.127 356.044 619.976 357.628C621.459 358.206 622.772 359.147 623.795 360.367C624.817 361.586 625.515 363.042 625.825 364.602C634.277 362.076 640.239 362.303 644.088 365.319C647.937 368.335 649.56 373.989 649.258 382.774Z" fill="#808AFF"/>
<path d="M178.028 96.5828C176.644 95.6822 175.469 94.4752 174.584 93.049C173.7 91.6219 173.129 90.0105 172.912 88.3284L172.029 82.4586C172.008 82.3293 171.943 82.2119 171.846 82.1275C171.749 82.0432 171.626 81.9982 171.5 82.0001C171.373 81.9982 171.25 82.0432 171.153 82.1275C171.056 82.2119 170.991 82.3293 170.971 82.4586L170.089 88.3284C169.854 90.005 169.275 91.61 168.392 93.0335C167.51 94.4578 166.343 95.6684 164.972 96.5828L164.266 97.0414C164.182 97.0799 164.11 97.1441 164.063 97.2267C164.015 97.3092 163.994 97.4046 164.002 97.5C163.994 97.5954 164.015 97.6917 164.063 97.7733C164.11 97.8559 164.182 97.921 164.266 97.9586L164.972 98.4172C166.339 99.36 167.5 100.589 168.381 102.027C169.262 103.464 169.843 105.078 170.089 106.763L170.971 112.541C170.991 112.671 171.056 112.788 171.153 112.872C171.25 112.957 171.373 113.002 171.5 113C171.626 113.002 171.749 112.957 171.846 112.872C171.943 112.788 172.008 112.671 172.029 112.541L172.912 106.763C173.139 105.073 173.714 103.452 174.598 102.012C175.48 100.572 176.65 99.3462 178.028 98.4172L178.734 97.9586C178.819 97.921 178.889 97.8559 178.937 97.7733C178.985 97.6917 179.006 97.5954 178.999 97.5C179.006 97.4046 178.985 97.3092 178.937 97.2267C178.889 97.1441 178.819 97.0799 178.734 97.0414L178.028 96.5828Z" fill="#91FFAD"/>
<path d="M757.476 124.021C756.748 123.576 756.129 122.991 755.659 122.303C755.189 121.615 754.881 120.84 754.755 120.031L754.315 117.233C754.299 117.169 754.26 117.112 754.205 117.07C754.15 117.028 754.082 117.003 754.013 117C753.941 116.999 753.873 117.022 753.815 117.065C753.76 117.107 753.724 117.167 753.711 117.233L753.271 120.031C753.139 120.842 752.826 121.617 752.353 122.305C751.877 122.993 751.253 123.578 750.522 124.021L750.137 124.254C750.096 124.281 750.063 124.316 750.041 124.356C750.016 124.396 750.003 124.441 750 124.487C750 124.534 750.014 124.579 750.038 124.62C750.06 124.66 750.096 124.695 750.137 124.72L750.522 124.953C751.256 125.402 751.88 125.991 752.353 126.683C752.826 127.376 753.139 128.155 753.271 128.969L753.711 131.767C753.724 131.833 753.76 131.893 753.815 131.936C753.873 131.978 753.941 132.001 754.013 132C754.082 131.997 754.15 131.972 754.205 131.93C754.26 131.888 754.299 131.831 754.315 131.767L754.755 128.969C754.881 128.156 755.189 127.378 755.659 126.686C756.127 125.994 756.748 125.403 757.476 124.953L757.888 124.72C757.927 124.694 757.957 124.658 757.976 124.617C757.996 124.576 758.004 124.532 757.998 124.487C758.001 124.443 757.993 124.399 757.974 124.358C757.954 124.318 757.924 124.282 757.888 124.254L757.476 124.021Z" fill="#3F99F2"/>
<path d="M824.006 301.606C823.194 301.081 822.508 300.388 821.987 299.576C821.466 298.763 821.126 297.849 820.987 296.894L820.459 293.614C820.459 293.534 820.428 293.457 820.372 293.401C820.315 293.344 820.236 293.313 820.157 293.313C820.074 293.312 819.991 293.343 819.93 293.398C819.866 293.454 819.825 293.531 819.817 293.614L819.327 296.894C819.179 297.851 818.832 298.767 818.308 299.579C817.779 300.391 817.085 301.082 816.27 301.606L815.855 301.87C815.813 301.902 815.776 301.941 815.753 301.986C815.727 302.032 815.708 302.082 815.704 302.134C815.704 302.188 815.715 302.24 815.746 302.287C815.772 302.333 815.81 302.371 815.855 302.398L816.27 302.662C817.081 303.189 817.772 303.882 818.3 304.694C818.825 305.505 819.176 306.419 819.327 307.374L819.817 310.654C819.825 310.738 819.866 310.815 819.93 310.87C819.991 310.926 820.074 310.957 820.157 310.956C820.236 310.956 820.315 310.924 820.372 310.868C820.428 310.811 820.459 310.734 820.459 310.654L820.987 307.374C821.13 306.421 821.474 305.509 821.994 304.697C822.515 303.885 823.198 303.192 824.006 302.662L824.421 302.398C824.47 302.375 824.511 302.337 824.538 302.29C824.564 302.243 824.575 302.189 824.572 302.134C824.572 302.081 824.557 302.028 824.53 301.982C824.504 301.936 824.466 301.897 824.421 301.87L824.006 301.606Z" fill="#404EED"/>
<path d="M339.949 302.963C339.642 302.769 339.382 302.509 339.186 302.203C338.991 301.897 338.864 301.552 338.817 301.192L338.628 299.985C338.628 299.955 338.616 299.926 338.595 299.905C338.574 299.884 338.545 299.872 338.515 299.872C338.485 299.872 338.456 299.884 338.435 299.905C338.414 299.926 338.402 299.955 338.402 299.985L338.213 301.192C338.165 301.552 338.039 301.897 337.843 302.203C337.648 302.509 337.388 302.769 337.081 302.963L336.892 303.077C336.855 303.077 336.855 303.152 336.855 303.19C336.853 303.21 336.855 303.231 336.862 303.25C336.868 303.27 336.878 303.288 336.892 303.303L337.081 303.378C337.38 303.582 337.634 303.844 337.828 304.148C338.023 304.453 338.154 304.794 338.213 305.15L338.402 306.394C338.402 306.424 338.414 306.453 338.435 306.474C338.456 306.495 338.485 306.507 338.515 306.507C338.545 306.507 338.574 306.495 338.595 306.474C338.616 306.453 338.628 306.424 338.628 306.394L338.817 305.15C338.876 304.794 339.007 304.453 339.201 304.148C339.396 303.844 339.65 303.582 339.949 303.378L340.138 303.303C340.151 303.288 340.161 303.27 340.168 303.25C340.175 303.231 340.177 303.21 340.175 303.19C340.175 303.152 340.175 303.077 340.138 303.077L339.949 302.963Z" fill="#FF78B9"/>
<path d="M355.873 351.332C355.716 351.239 355.582 351.113 355.477 350.964C355.373 350.814 355.302 350.644 355.269 350.465L355.194 349.824H355.08L354.967 350.465C354.941 350.642 354.876 350.811 354.779 350.96C354.681 351.11 354.552 351.237 354.401 351.332L354.326 351.408C354.316 351.408 354.306 351.412 354.299 351.419C354.292 351.426 354.288 351.435 354.288 351.445C354.288 351.455 354.292 351.465 354.299 351.472C354.306 351.479 354.316 351.483 354.326 351.483L354.401 351.558C354.552 351.654 354.681 351.781 354.779 351.93C354.876 352.08 354.941 352.249 354.967 352.426L355.08 353.066H355.194L355.269 352.426C355.302 352.246 355.373 352.076 355.477 351.927C355.582 351.777 355.716 351.652 355.873 351.558L355.948 351.483L355.873 351.332Z" fill="#FFC619"/>
<path d="M515.376 347.788C515.037 347.559 514.75 347.264 514.531 346.921C514.308 346.577 514.161 346.193 514.093 345.79L513.904 344.433C513.904 344.358 513.829 344.32 513.754 344.32C513.738 344.32 513.723 344.323 513.708 344.328C513.697 344.334 513.686 344.342 513.674 344.353C513.663 344.364 513.655 344.376 513.648 344.39C513.644 344.404 513.64 344.418 513.64 344.433L513.414 345.79C513.361 346.193 513.225 346.58 513.01 346.925C512.795 347.269 512.508 347.564 512.169 347.788L511.98 347.901C511.942 347.901 511.905 347.939 511.905 348.014C511.905 348.052 511.942 348.09 511.98 348.127L512.169 348.241C512.501 348.463 512.784 348.751 512.999 349.089C513.214 349.427 513.354 349.805 513.414 350.201L513.64 351.558C513.64 351.588 513.652 351.617 513.674 351.638C513.693 351.66 513.723 351.671 513.754 351.671C513.829 351.671 513.904 351.634 513.904 351.558L514.093 350.201C514.165 349.805 514.316 349.428 514.535 349.091C514.757 348.755 515.04 348.465 515.376 348.241L515.565 348.127C515.58 348.112 515.587 348.094 515.595 348.075C515.603 348.055 515.603 348.035 515.603 348.014C515.603 347.939 515.603 347.901 515.565 347.901L515.376 347.788Z" fill="#91FFAD"/>
<path d="M124.561 338.891C124.198 338.646 123.89 338.329 123.657 337.959C123.423 337.589 123.268 337.175 123.203 336.742L122.976 335.234C122.939 335.159 122.901 335.083 122.825 335.083C122.785 335.083 122.747 335.099 122.719 335.128C122.69 335.156 122.674 335.194 122.674 335.234L122.448 336.742C122.376 337.177 122.214 337.592 121.974 337.962C121.734 338.332 121.42 338.648 121.052 338.891L120.825 339.004C120.788 339.042 120.788 339.08 120.788 339.155C120.788 339.193 120.788 339.268 120.825 339.268L121.052 339.419C121.423 339.658 121.739 339.974 121.98 340.344C122.22 340.715 122.38 341.132 122.448 341.568L122.674 343.076C122.674 343.151 122.75 343.189 122.825 343.189C122.901 343.189 122.939 343.151 122.976 343.076L123.203 341.568C123.263 341.134 123.416 340.718 123.651 340.347C123.885 339.977 124.195 339.661 124.561 339.419L124.788 339.268C124.825 339.268 124.863 339.193 124.863 339.155C124.863 339.126 124.856 339.097 124.843 339.071C124.83 339.045 124.811 339.022 124.788 339.004L124.561 338.891Z" fill="#FF78B9"/>
<path d="M192.773 240.808C192.41 240.563 192.103 240.245 191.869 239.875C191.635 239.506 191.48 239.091 191.415 238.659L191.189 237.151C191.151 237.075 191.113 237 191.038 237C190.998 237 190.959 237.016 190.931 237.044C190.903 237.072 190.887 237.111 190.887 237.151L190.66 238.659C190.588 239.094 190.427 239.509 190.186 239.879C189.946 240.249 189.632 240.565 189.264 240.808L189.038 240.921C189 240.958 189 240.996 189 241.072C189 241.109 189 241.185 189.038 241.185L189.264 241.335C189.635 241.575 189.952 241.89 190.192 242.261C190.433 242.631 190.592 243.048 190.66 243.484L190.887 244.992C190.887 245.068 190.962 245.105 191.038 245.105C191.113 245.105 191.151 245.068 191.189 244.992L191.415 243.484C191.476 243.05 191.629 242.635 191.863 242.264C192.097 241.893 192.407 241.577 192.773 241.335L193 241.185C193.038 241.185 193.075 241.109 193.075 241.072C193.075 241.043 193.069 241.014 193.055 240.987C193.042 240.961 193.023 240.938 193 240.921L192.773 240.808Z" fill="#B756FE"/>
</svg>
